<?xml version="1.0" standalone="no"?>
<!DOCTYPE svg PUBLIC "-//W3C//DTD SVG 20010904//EN"
 "http://www.w3.org/TR/2001/REC-SVG-20010904/DTD/svg10.dtd">
<svg version="1.0" xmlns="http://www.w3.org/2000/svg"
 width="1024.000000pt" height="894.000000pt" viewBox="0 0 1024.000000 894.000000"
 preserveAspectRatio="xMidYMid meet">

<g transform="translate(0.000000,894.000000) scale(0.100000,-0.100000)"
fill="#000000" stroke="none">
<path d="M2585 8917 c-33 -13 -555 -312 -1160 -666 -605 -354 -1120 -655
-1145 -670 -60 -34 -160 -134 -194 -196 -15 -27 -40 -84 -54 -125 l-27 -75 0
-1365 0 -1365 28 -82 c34 -100 107 -213 183 -283 66 -59 36 -41 1319 -786 539
-312 1009 -579 1045 -593 59 -23 79 -25 210 -26 137 0 150 2 230 31 61 22 293
152 815 456 402 234 919 534 1150 668 231 134 791 459 1245 723 454 264 852
493 886 509 144 67 317 75 481 20 71 -24 212 -102 697 -384 710 -412 725 -424
816 -606 66 -132 63 -105 67 -892 3 -491 1 -741 -7 -800 -21 -159 -97 -302
-218 -410 -66 -60 -1213 -747 -1302 -781 -163 -61 -368 -50 -535 30 -108 52
-1208 698 -1255 737 -69 58 -128 132 -165 209 -68 137 -68 141 -74 662 l-6
473 -497 -288 -498 -287 0 -485 c0 -545 2 -557 70 -690 49 -92 121 -175 203
-234 73 -51 2185 -1277 2266 -1315 52 -24 67 -26 230 -29 167 -4 176 -3 250
23 52 19 422 228 1171 662 602 350 1116 651 1142 670 114 83 213 238 243 379
12 59 15 268 15 1402 0 1477 3 1404 -65 1547 -42 86 -114 177 -186 232 -59 44
-2223 1302 -2292 1332 -150 64 -360 60 -522 -9 -25 -11 -388 -221 -807 -468
-420 -247 -981 -570 -1248 -717 -286 -158 -797 -454 -1244 -723 -488 -292
-785 -465 -830 -481 -63 -23 -86 -26 -206 -26 -145 1 -206 13 -305 63 -27 13
-315 185 -640 380 -542 328 -596 362 -665 432 -58 57 -85 95 -117 160 -75 151
-74 146 -71 995 l3 750 28 80 c50 142 130 251 241 329 62 44 1138 672 1234
720 158 80 379 80 557 2 74 -33 1209 -720 1270 -770 98 -78 174 -190 217 -316
22 -63 22 -80 26 -562 2 -274 5 -498 7 -498 2 0 228 130 502 288 l498 289 0
509 -1 509 -27 81 c-43 130 -130 250 -237 329 -70 51 -2208 1304 -2262 1326
-42 16 -74 19 -236 18 -168 0 -193 -2 -247 -22z"/>
</g>
</svg>
